<svg xmlns="http://www.w3.org/2000/svg" width="429" height="97.87519282621342" viewBox="0 0 473 107.91367414172248" class="looka-1j8o68f"><defs id="SvgjsDefs1202"></defs><g id="SvgjsG1203" featurekey="symbolContainer" transform="matrix(1.7,0,0,1.7,0,1)" fill="#fcfcfc">    <rect width="90" height="62"></rect></g><g id="SvgjsG1204" featurekey="monogramFeature-0" transform="matrix(0.6078287632406059,0,0,0.6078287632406059,48.024801650605305,30.4507643954953)" fill="#111111"><path d="M28.38 36.54 c0 0.66 -0.54 1.26 -1.44 1.5 l-14.22 5.22 l14.28 6.36 c0.84 0.36 1.38 0.9 1.38 1.56 l0 6.12 c0 0.6 -0.6 1.44 -1.86 0.78 l-18.48 -9.42 c-1.02 -0.48 -1.5 -1.08 -1.5 -2.1 l0 -6.6 c0 -1.14 0.54 -1.68 1.56 -2.1 l18.42 -8.04 c1.26 -0.54 1.86 0.3 1.86 0.9 l0 5.82 z M38.22 65.58 c-1.02 0 -1.2 -0.72 -0.9 -1.62 l14.76 -50.64 c0.18 -0.6 0.84 -0.9 1.56 -0.9 l3.42 0 c0.96 0 1.2 0.72 0.9 1.56 l-14.7 50.64 c-0.18 0.66 -0.78 0.96 -1.5 0.96 l-3.54 0 z M87.18 37.86 c1.08 0.42 1.62 0.96 1.62 2.1 l0 6.66 c0 1.08 -0.48 1.68 -1.5 2.16 l-18.48 9.42 c-1.26 0.6 -1.86 -0.18 -1.86 -0.78 l0 -6.12 c0 -0.66 0.54 -1.2 1.38 -1.56 l14.82 -6.36 l-14.76 -5.22 c-0.84 -0.3 -1.38 -0.84 -1.38 -1.56 l0 -5.88 c0 -0.6 0.6 -1.44 1.8 -0.9 z"></path></g><g id="SvgjsG1205" featurekey="nameFeature-0" transform="matrix(3.854059790775803,0,0,3.854059790775803,166.8335047023105,-46.2487138137918)" fill="#fcfcfc"><path d="M9.2 31.32 l-7.6 -19.32 l5.4 0 l4.2 10.6 l4.16 -10.6 l5.4 0 l-7.6 19.32 l-3.96 0 z M1.68 40 l0 -23.24 l5.04 12.84 l0 10.4 l-5.04 0 z M15.68 40 l0 -10.4 l5.04 -12.84 l0 23.24 l-5.04 0 z M33.08 40 l0 -5.04 l1.6 0 l0.76 -0.76 l0 -16.4 l-0.76 -0.76 l-1.6 0 l0 -5.04 l3.68 0 l3.72 3.72 l0 20.56 l-3.72 3.72 l-3.68 0 z M27.68 40 l-3.72 -3.72 l0 -20.56 l3.72 -3.72 l3.68 0 l0 5.04 l-1.6 0 l-0.76 0.76 l0 16.4 l0.76 0.76 l1.6 0 l0 5.04 l-3.68 0 z M52.08 40 l0 -5.04 l0.92 0 l0.76 -0.76 l0 -15.48 l5.04 0 l0 17.56 l-3.72 3.72 l-3 0 z M47.4 40 l-3.72 -3.72 l0 -5.24 l5.04 0 l0 3.16 l0.76 0.76 l0.92 0 l0 5.04 l-3 0 z M50.4 17.04 l0 -5.04 l8.4 0 l0 5.04 l-8.4 0 z M61.199999999999996 40 l2.28 -11.2 l8.56 0 l-1.72 -8.56 l-1.36 6.88 l-5.16 0 l3.04 -15.12 l6.96 0 l4.4 21.84 l-10.6 0 l-1.24 6.16 l-5.16 0 z M74.32 40 l-0.92 -4.48 l5.16 0 l0.88 4.48 l-5.12 0 z"></path></g></svg>
